<svg xmlns="http://www.w3.org/2000/svg" viewBox="0 0 40 40" fill="none">
  <rect width="40" height="40" rx="8" fill="#0D9488"/>
  <path d="M20 8C15.6 8 12 11.6 12 16C12 18.4 13 20.5 14.7 22L14 30H18L18.5 24H21.5L22 30H26L25.3 22C27 20.5 28 18.4 28 16C28 11.6 24.4 8 20 8Z" fill="white"/>
  <circle cx="17" cy="15" r="1.5" fill="#0D9488"/>
  <circle cx="23" cy="15" r="1.5" fill="#0D9488"/>
  <path d="M17 19C17 19 18.5 21 20 21C21.5 21 23 19 23 19" stroke="#0D9488" stroke-width="1.5" stroke-linecap="round"/>
</svg>
